<?xml version="1.0" standalone="no"?>
<!DOCTYPE svg PUBLIC "-//W3C//DTD SVG 20010904//EN"
 "http://www.w3.org/TR/2001/REC-SVG-20010904/DTD/svg10.dtd">
<svg version="1.0" xmlns="http://www.w3.org/2000/svg"
 width="1024.000000pt" height="1024.000000pt" viewBox="0 0 1024.000000 1024.000000"
 preserveAspectRatio="xMidYMid meet">

<g transform="translate(0.000000,1024.000000) scale(0.100000,-0.100000)"
fill="#003932" stroke="none">
<path d="M5570 8099 l-985 -5 -115 -27 c-457 -109 -832 -278 -1205 -545 -280
-200 -530 -458 -715 -736 -471 -708 -618 -1646 -385 -2452 110 -378 272 -694
525 -1024 105 -136 401 -428 540 -532 417 -311 884 -507 1407 -590 119 -19
178 -22 428 -22 253 -1 308 2 434 22 553 88 1044 302 1476 647 243 194 481
461 662 743 201 314 352 721 415 1123 19 123 22 183 22 419 0 312 -12 414 -85
698 -66 257 -120 386 -223 536 l-61 88 -5 794 -5 793 -29 30 c-16 16 -41 33
-55 36 -41 8 -967 10 -2041 4z m-399 -1049 c143 -44 339 -212 503 -432 50 -66
64 -79 100 -88 160 -41 260 -121 324 -260 47 -102 41 -252 -15 -366 -28 -57
-128 -161 -183 -189 -36 -18 -35 -16 -10 -106 10 -39 22 -98 26 -132 9 -82 14
-90 76 -118 78 -35 182 -33 263 4 198 91 289 318 289 717 0 227 -11 277 -95
439 -59 112 -61 118 -57 178 7 119 96 198 213 191 71 -5 121 -33 159 -92 44
-67 44 -115 2 -241 -60 -183 -59 -273 6 -342 37 -38 67 -47 117 -33 58 15 81
47 91 124 13 106 77 171 179 183 125 15 247 -113 226 -237 -9 -56 -58 -126
-102 -148 -21 -11 -67 -29 -104 -41 -36 -12 -79 -31 -97 -44 -72 -50 -172
-215 -252 -417 -124 -311 -245 -462 -455 -564 -104 -50 -161 -61 -316 -60
l-136 1 -6 -146 c-19 -436 -159 -864 -399 -1218 -44 -66 -50 -88 -29 -114 33
-41 61 -21 146 108 206 312 359 506 575 727 219 224 380 350 555 432 178 85
364 64 480 -54 120 -121 136 -294 45 -473 -48 -95 -175 -265 -301 -404 -34
-38 -68 -76 -74 -83 -38 -47 -283 -262 -400 -350 -385 -293 -791 -487 -1160
-554 -166 -31 -427 -30 -600 1 -480 87 -1068 429 -1505 877 -399 409 -518 664
-413 886 54 113 139 175 273 200 199 37 442 -99 791 -444 202 -200 413 -460
589 -728 114 -174 121 -180 162 -143 27 24 23 41 -33 123 -198 292 -318 611
-374 994 -12 86 -25 263 -25 353 0 5 -62 9 -147 9 -134 0 -156 2 -228 27 -198
66 -347 200 -449 404 -20 40 -57 123 -82 184 -97 239 -179 374 -261 428 -26
17 -78 41 -116 52 -163 48 -225 205 -133 332 31 43 97 78 158 83 104 10 194
-65 207 -173 12 -97 44 -133 119 -133 90 0 142 63 142 171 0 49 -10 92 -40
178 -48 137 -50 180 -12 252 23 43 38 59 82 82 47 25 64 28 117 25 51 -3 69
-9 100 -34 63 -51 84 -98 81 -175 -3 -57 -9 -75 -47 -138 -24 -39 -54 -100
-67 -135 -47 -130 -55 -383 -19 -592 44 -248 121 -381 260 -450 50 -24 72 -29
130 -28 78 0 160 24 193 55 17 15 22 32 22 67 0 26 9 83 20 127 12 44 22 86
23 94 1 8 -23 31 -53 52 -115 80 -178 176 -201 304 -39 223 114 440 348 495
52 12 55 15 137 123 159 212 357 372 503 406 60 14 97 12 164 -9z"/>
<path d="M4360 6309 c-56 -25 -77 -44 -100 -89 -61 -120 -20 -258 92 -314 127
-63 274 1 313 137 54 186 -129 346 -305 266z"/>
<path d="M5619 6317 c-60 -23 -96 -54 -123 -109 -96 -192 99 -396 294 -307 89
40 130 103 130 196 -1 91 -47 170 -124 210 -41 21 -133 26 -177 10z"/>
</g>
</svg>
